<svg id="Layer_2" xmlns="http://www.w3.org/2000/svg" viewBox="0 0 2351.38 1806.82"><defs><style>.cls-1{fill:#0b4021;stroke-width:0px;}</style></defs><g id="Layer_1-2"><path class="cls-1" d="M0,0v1806.82h2351.38V0H0ZM1175.75,963.84v23.45h-.05c-21.39,0-40.59-9.17-54.04-23.7,1.69.61,3.43,1.07,5.67,1.07,10.15,0,24.09-12.91,35.52-12.91,9.18,0,12.91,6.05,12.91,12.08h0ZM1234.58,957.81h-55.1c-2.06,0-3.72-1.66-3.72-3.71v-21.65c0-8.08-4.95-12.96-13.28-12.96-14.31,0-28.51,17.05-43.94,17.05v.02c-8.88,0-16.45-8.23-16.45-22.75v-16.07c3.12,4.08,6.18,6.9,12.47,6.9,14.41,0,32.34-18.98,47.92-18.98,9.17,0,13.28,5.48,13.28,10.87v24.02c0,2.05,1.66,3.71,3.72,3.71h69.03c-1.78,12.47-6.68,23.92-13.93,33.55ZM1249.32,891.7h-69.85c-2.06,0-3.72-1.66-3.72-3.71v-21.66c0-8.08-4.95-12.96-13.28-12.96-14.31,0-31.28,17.81-46.71,17.81v.02c-10.36,0-13.69-6.9-13.69-14.22v-27.94c3.89,6.3,7.98,8.48,14.27,8.48,14.42,0,30.55-17.98,46.13-17.98,9.17,0,13.28,5.48,13.28,10.87v24.02c0,2.06,1.66,3.72,3.72,3.72h69.85v33.55Z"/></g></svg>